<svg xmlns="http://www.w3.org/2000/svg" xmlns:xlink="http://www.w3.org/1999/xlink" id="svgContent" version="1.1" width="256" height="256" style="position: relative; width: 48px; height: 48px; margin:auto; user-select: none; cursor: default;" viewBox="0 0 256 256"><g id="svgPath"><path d="M 115 0.561 C 113.625 0.796, 109.350 1.491, 105.500 2.105 C 88.381 4.835, 66.739 14.113, 52.125 24.988 C 21.191 48.005, 2.338 83.174, 0.340 121.585 C -3.005 185.903, 40.818 241.770, 104.285 254.099 C 116.416 256.456, 138.022 256.648, 150.290 254.509 C 175.227 250.160, 197.611 238.837, 216.154 221.191 C 237.072 201.285, 249.679 177.421, 254.927 147.797 C 257.096 135.550, 257.659 118.844, 256.080 113.571 C 255.574 111.882, 254.175 105.775, 252.970 100 C 247.994 76.145, 236.662 55.570, 218.537 37.481 C 200.625 19.603, 178.570 7.772, 153.240 2.451 C 145.897 0.909, 120.354 -0.354, 115 0.561 M 79.210 116.226 C 60.915 166.977, 45.958 208.838, 45.973 209.250 C 45.988 209.662, 53.087 209.999, 61.750 209.998 L 77.500 209.997 102.500 140.577 C 116.250 102.397, 127.773 71.460, 128.107 71.829 C 128.440 72.198, 132.567 83.795, 137.276 97.600 L 145.840 122.699 133.852 155.100 L 121.865 187.500 122.544 200.250 C 122.998 208.772, 123.601 212.982, 124.362 212.946 C 124.988 212.917, 129.742 210.779, 134.926 208.196 L 144.352 203.500 150.165 187.500 C 153.362 178.700, 156.724 169.512, 157.635 167.083 L 159.293 162.666 167.396 186.083 L 175.500 209.500 191.250 209.775 C 202.349 209.969, 207 209.721, 207 208.934 C 207 208.319, 200.056 187.436, 191.569 162.526 L 176.138 117.235 187.578 86.219 L 199.019 55.202 196.132 47.351 L 193.244 39.500 184.958 39.500 L 176.671 39.500 169.651 58.446 C 165.790 68.866, 162.483 76.966, 162.302 76.446 C 162.122 75.926, 158.042 64.025, 153.237 50 L 144.500 24.500 128.487 24.226 L 112.474 23.953 79.210 116.226 M 0.385 128 C 0.385 134.875, 0.545 137.688, 0.740 134.250 C 0.936 130.813, 0.936 125.188, 0.740 121.750 C 0.545 118.313, 0.385 121.125, 0.385 128" stroke="none" fill="#eb2c7c" fill-rule="evenodd"></path><path d="M 112.479 25.250 C 112.227 25.938, 97.832 65.875, 80.490 114 C 63.148 162.125, 48.297 203.188, 47.488 205.250 L 46.016 209 61.758 208.979 L 77.500 208.958 102.491 139.520 C 116.236 101.329, 127.787 70.401, 128.160 70.791 C 128.767 71.426, 151.323 137.114, 168.835 189.250 L 175.469 209 191.186 209 L 206.903 209 192.527 166.750 C 184.620 143.512, 177.597 122.963, 176.920 121.083 L 175.688 117.667 173.593 123.583 L 171.497 129.500 162.999 129.783 L 154.500 130.067 151.786 122.502 L 149.071 114.938 155.718 96.852 L 162.365 78.767 158.050 65.633 C 155.676 58.410, 151.495 46.088, 148.758 38.250 L 143.782 24 128.359 24 C 116.933 24, 112.818 24.324, 112.479 25.250 M 179.791 47.500 L 182.489 55 190.244 55 C 194.510 55, 198 54.672, 198 54.271 C 198 53.870, 196.836 50.495, 195.413 46.771 L 192.825 40 184.960 40 L 177.094 40 179.791 47.500" stroke="none" fill="#d5d1d3" fill-rule="evenodd"></path><path d="M 163.228 77.348 C 155.929 97.232, 149.967 114.233, 149.978 115.128 C 149.990 116.024, 151.077 119.624, 152.392 123.128 L 154.785 129.500 162.781 129.789 C 170.727 130.075, 170.784 130.060, 171.789 127.289 C 172.345 125.755, 178.470 109.228, 185.400 90.563 C 192.330 71.897, 198 56.485, 198 56.313 C 198 56.141, 194.483 56, 190.185 56 L 182.370 56 180.157 49.750 C 178.939 46.313, 177.619 42.982, 177.222 42.348 C 176.825 41.715, 170.528 57.465, 163.228 77.348 M 133.689 157.036 L 121.894 189.071 122.980 200.735 C 123.577 207.150, 124.171 212.504, 124.300 212.634 C 124.430 212.763, 128.849 210.835, 134.121 208.349 L 143.707 203.829 151.435 182.793 L 159.162 161.757 152.831 143.380 C 149.349 133.274, 146.271 125.003, 145.992 125.002 C 145.712 125.001, 140.176 139.416, 133.689 157.036" stroke="none" fill="#444043" fill-rule="evenodd"></path><path d="M 186.280 55.736 C 188.909 55.943, 192.959 55.940, 195.280 55.731 C 197.601 55.521, 195.450 55.352, 190.500 55.355 C 185.550 55.358, 183.651 55.530, 186.280 55.736" stroke="none" fill="#747476" fill-rule="evenodd"></path><path d="M 184.469 39.725 C 189.143 39.940, 192.793 40.590, 193.296 41.296 C 193.902 42.149, 194.034 42.062, 193.746 41 C 193.427 39.825, 191.514 39.485, 184.920 39.429 L 176.500 39.358 184.469 39.725 M 53.750 209.744 C 58.288 209.929, 65.713 209.929, 70.250 209.744 C 74.787 209.559, 71.075 209.407, 62 209.407 C 52.925 209.407, 49.212 209.559, 53.750 209.744 M 183.797 209.745 C 188.361 209.930, 195.561 209.929, 199.797 209.742 C 204.034 209.555, 200.300 209.404, 191.500 209.405 C 182.700 209.406, 179.234 209.559, 183.797 209.745" stroke="none" fill="#e176a1" fill-rule="evenodd"></path><path d="M 122.195 197.500 C 122.215 199.150, 122.439 199.704, 122.693 198.731 C 122.947 197.758, 122.930 196.408, 122.656 195.731 C 122.382 195.054, 122.175 195.850, 122.195 197.500 M 123.232 210 C 123.232 211.925, 123.438 212.713, 123.689 211.750 C 123.941 210.787, 123.941 209.213, 123.689 208.250 C 123.438 207.287, 123.232 208.075, 123.232 210" stroke="none" fill="#843454" fill-rule="evenodd"></path></g></svg>