<svg xmlns="http://www.w3.org/2000/svg" xmlns:xlink="http://www.w3.org/1999/xlink" id="svgContent" version="1.1" width="53" height="53" style="position: relative; width: 53px; height: 53px; user-select: none; cursor: default;" viewBox="0 0 300 300"><g id="svgPath"><path d="M 170.586 65.711 C 173.150 66.036, 173.859 66.728, 174.774 69.801 L 175.876 73.500 175.321 70 C 174.561 65.217, 174.332 64.977, 170.691 65.160 L 167.500 65.320 170.586 65.711 M 143.564 68.707 C 143.022 70.132, 143.136 70.247, 144.124 69.267 C 144.808 68.588, 145.115 67.781, 144.807 67.474 C 144.499 67.166, 143.940 67.721, 143.564 68.707 M 140.500 74 C 139.647 75.650, 139.174 77, 139.449 77 C 139.724 77, 140.647 75.650, 141.500 74 C 142.353 72.350, 142.826 71, 142.551 71 C 142.276 71, 141.353 72.350, 140.500 74 M 177.489 81 C 177.886 82.925, 178.598 84.912, 179.070 85.415 C 179.543 85.918, 179.449 84.568, 178.860 82.415 C 177.490 77.398, 176.544 76.423, 177.489 81 M 133.564 85.707 C 133.022 87.132, 133.136 87.247, 134.124 86.267 C 134.808 85.588, 135.115 84.781, 134.807 84.474 C 134.499 84.166, 133.940 84.721, 133.564 85.707 M 120.459 108.067 C 120.096 108.653, 120.014 109.348, 120.276 109.610 C 120.538 109.872, 121.019 109.392, 121.345 108.543 C 122.021 106.781, 121.445 106.471, 120.459 108.067 M 149.459 114.067 C 149.096 114.653, 149.014 115.348, 149.276 115.610 C 149.538 115.872, 150.019 115.392, 150.345 114.543 C 151.021 112.781, 150.445 112.471, 149.459 114.067 M 210.500 116 C 209.647 117.650, 209.174 119, 209.449 119 C 209.724 119, 210.647 117.650, 211.500 116 C 212.353 114.350, 212.826 113, 212.551 113 C 212.276 113, 211.353 114.350, 210.500 116 M 206.500 123 C 205.647 124.650, 205.174 126, 205.449 126 C 205.724 126, 206.647 124.650, 207.500 123 C 208.353 121.350, 208.826 120, 208.551 120 C 208.276 120, 207.353 121.350, 206.500 123 M 142.500 126 C 141.647 127.650, 141.174 129, 141.449 129 C 141.724 129, 142.647 127.650, 143.500 126 C 144.353 124.350, 144.826 123, 144.551 123 C 144.276 123, 143.353 124.350, 142.500 126 M 139.459 131.067 C 139.096 131.653, 139.014 132.348, 139.276 132.610 C 139.538 132.872, 140.019 132.392, 140.345 131.543 C 141.021 129.781, 140.445 129.471, 139.459 131.067 M 164 141.059 C 164 141.641, 164.450 141.840, 165 141.500 C 165.550 141.160, 166 140.684, 166 140.441 C 166 140.198, 165.550 140, 165 140 C 164.450 140, 164 140.477, 164 141.059 M 162.278 144.250 C 160.779 146.188, 159.836 148, 160.326 148 C 160.570 148, 161.507 146.875, 162.408 145.500 C 164.094 142.927, 164 142.024, 162.278 144.250 M 194.500 144 C 194.160 144.550, 194.359 145, 194.941 145 C 195.523 145, 196 144.550, 196 144 C 196 143.450, 195.802 143, 195.559 143 C 195.316 143, 194.840 143.450, 194.500 144 M 97.872 147.750 C 96.629 149.336, 96.664 149.371, 98.250 148.128 C 99.213 147.373, 100 146.585, 100 146.378 C 100 145.555, 99.179 146.084, 97.872 147.750 M 128 151 C 127.411 152.100, 127.155 153, 127.430 153 C 127.705 153, 128.411 152.100, 129 151 C 129.589 149.900, 129.845 149, 129.570 149 C 129.295 149, 128.589 149.900, 128 151 M 95.459 152.067 C 95.096 152.653, 95.014 153.348, 95.276 153.610 C 95.538 153.872, 96.019 153.392, 96.345 152.543 C 97.021 150.781, 96.445 150.471, 95.459 152.067 M 155 157 C 154.411 158.100, 154.155 159, 154.430 159 C 154.705 159, 155.411 158.100, 156 157 C 156.589 155.900, 156.845 155, 156.570 155 C 156.295 155, 155.589 155.900, 155 157 M 118.667 166.667 C 118.300 167.033, 118 167.798, 118 168.367 C 118 168.993, 118.466 168.934, 119.183 168.217 C 119.834 167.566, 120.134 166.801, 119.850 166.517 C 119.566 166.232, 119.033 166.300, 118.667 166.667 M 201.079 168.583 C 201.127 169.748, 201.364 169.985, 201.683 169.188 C 201.972 168.466, 201.936 167.603, 201.604 167.271 C 201.272 166.939, 201.036 167.529, 201.079 168.583 M 202.079 172.583 C 202.127 173.748, 202.364 173.985, 202.683 173.188 C 202.972 172.466, 202.936 171.603, 202.604 171.271 C 202.272 170.939, 202.036 171.529, 202.079 172.583 M 80.500 178 C 79.647 179.650, 79.174 181, 79.449 181 C 79.724 181, 80.647 179.650, 81.500 178 C 82.353 176.350, 82.826 175, 82.551 175 C 82.276 175, 81.353 176.350, 80.500 178 M 142.535 178.587 C 141.603 180.009, 141.012 181.346, 141.223 181.556 C 141.433 181.766, 142.394 180.602, 143.359 178.969 C 145.514 175.321, 144.871 175.022, 142.535 178.587 M 174.278 179.250 C 172.779 181.188, 171.836 183, 172.326 183 C 172.570 183, 173.507 181.875, 174.408 180.500 C 176.094 177.927, 176 177.024, 174.278 179.250 M 110 182.059 C 110 182.641, 110.450 182.840, 111 182.500 C 111.550 182.160, 112 181.684, 112 181.441 C 112 181.198, 111.550 181, 111 181 C 110.450 181, 110 181.477, 110 182.059 M 76.872 183.750 C 75.629 185.336, 75.664 185.371, 77.250 184.128 C 78.916 182.821, 79.445 182, 78.622 182 C 78.415 182, 77.627 182.787, 76.872 183.750 M 205.079 183.583 C 205.127 184.748, 205.364 184.985, 205.683 184.188 C 205.972 183.466, 205.936 182.603, 205.604 182.271 C 205.272 181.939, 205.036 182.529, 205.079 183.583 M 170 186 C 169.411 187.100, 169.155 188, 169.430 188 C 169.705 188, 170.411 187.100, 171 186 C 171.589 184.900, 171.845 184, 171.570 184 C 171.295 184, 170.589 184.900, 170 186 M 177.079 185.583 C 177.127 186.748, 177.364 186.985, 177.683 186.188 C 177.972 185.466, 177.936 184.603, 177.604 184.271 C 177.272 183.939, 177.036 184.529, 177.079 185.583 M 136.500 189 C 135.647 190.650, 135.174 192, 135.449 192 C 135.724 192, 136.647 190.650, 137.500 189 C 138.353 187.350, 138.826 186, 138.551 186 C 138.276 186, 137.353 187.350, 136.500 189 M 106 189 C 105.411 190.100, 105.155 191, 105.430 191 C 105.705 191, 106.411 190.100, 107 189 C 107.589 187.900, 107.845 187, 107.570 187 C 107.295 187, 106.589 187.900, 106 189 M 178.079 189.583 C 178.127 190.748, 178.364 190.985, 178.683 190.188 C 178.972 189.466, 178.936 188.603, 178.604 188.271 C 178.272 187.939, 178.036 188.529, 178.079 189.583 M 73 191 C 72.411 192.100, 72.155 193, 72.430 193 C 72.705 193, 73.411 192.100, 74 191 C 74.589 189.900, 74.845 189, 74.570 189 C 74.295 189, 73.589 189.900, 73 191 M 166 193 C 165.411 194.100, 165.155 195, 165.430 195 C 165.705 195, 166.411 194.100, 167 193 C 167.589 191.900, 167.845 191, 167.570 191 C 167.295 191, 166.589 191.900, 166 193 M 132.500 196 C 131.647 197.650, 131.174 199, 131.449 199 C 131.724 199, 132.647 197.650, 133.500 196 C 134.353 194.350, 134.826 193, 134.551 193 C 134.276 193, 133.353 194.350, 132.500 196 M 102 196 C 101.411 197.100, 101.155 198, 101.430 198 C 101.705 198, 102.411 197.100, 103 196 C 103.589 194.900, 103.845 194, 103.570 194 C 103.295 194, 102.589 194.900, 102 196 M 69 198 C 68.411 199.100, 68.155 200, 68.430 200 C 68.705 200, 69.411 199.100, 70 198 C 70.589 196.900, 70.845 196, 70.570 196 C 70.295 196, 69.589 196.900, 69 198 M 209.079 198.583 C 209.127 199.748, 209.364 199.985, 209.683 199.188 C 209.972 198.466, 209.936 197.603, 209.604 197.271 C 209.272 196.939, 209.036 197.529, 209.079 198.583 M 162 200 C 161.411 201.100, 161.155 202, 161.430 202 C 161.705 202, 162.411 201.100, 163 200 C 163.589 198.900, 163.845 198, 163.570 198 C 163.295 198, 162.589 198.900, 162 200 M 129 202 C 128.411 203.100, 128.155 204, 128.430 204 C 128.705 204, 129.411 203.100, 130 202 C 130.589 200.900, 130.845 200, 130.570 200 C 130.295 200, 129.589 200.900, 129 202 M 98 203 C 97.411 204.100, 97.155 205, 97.430 205 C 97.705 205, 98.411 204.100, 99 203 C 99.589 201.900, 99.845 201, 99.570 201 C 99.295 201, 98.589 201.900, 98 203 M 218.587 205.806 C 217.643 207.900, 216.953 210.037, 217.054 210.556 C 217.419 212.438, 216.972 213.885, 215.605 215.252 C 214.412 216.445, 214.726 218.589, 217.773 230.073 C 219.732 237.458, 221.421 243.623, 221.525 243.774 C 221.629 243.924, 222.349 243.803, 223.125 243.506 C 224.389 243.021, 230.282 234.327, 229.746 233.739 C 229.626 233.608, 230.498 231.925, 231.684 230 C 233.857 226.472, 238.812 214.207, 239.562 210.500 C 239.784 209.400, 240.221 207.323, 240.533 205.885 C 241.033 203.577, 240.726 203.195, 237.925 202.635 C 236.179 202.286, 231.500 202, 227.527 202 L 220.304 202 218.587 205.806 M 65 205 C 64.411 206.100, 64.155 207, 64.430 207 C 64.705 207, 65.411 206.100, 66 205 C 66.589 203.900, 66.845 203, 66.570 203 C 66.295 203, 65.589 203.900, 65 205 M 125 209 C 124.411 210.100, 124.155 211, 124.430 211 C 124.705 211, 125.411 210.100, 126 209 C 126.589 207.900, 126.845 207, 126.570 207 C 126.295 207, 125.589 207.900, 125 209 M 94 210 C 93.411 211.100, 93.155 212, 93.430 212 C 93.705 212, 94.411 211.100, 95 210 C 95.589 208.900, 95.845 208, 95.570 208 C 95.295 208, 94.589 208.900, 94 210 M 58.322 213.416 C 58.479 216.398, 60 217.625, 60 214.770 C 60 214.158, 60.657 212.931, 61.461 212.044 C 62.764 210.603, 62.665 210.408, 60.533 210.232 C 58.417 210.057, 58.165 210.420, 58.322 213.416 M 91 215 C 90.411 216.100, 90.155 217, 90.430 217 C 90.705 217, 91.411 216.100, 92 215 C 92.589 213.900, 92.845 213, 92.570 213 C 92.295 213, 91.589 213.900, 91 215 M 120.980 215.524 C 120.284 216.362, 119.909 217.242, 120.145 217.479 C 120.382 217.715, 121.125 217.030, 121.796 215.955 C 123.248 213.630, 122.764 213.375, 120.980 215.524 M 86.311 223.632 C 85.966 224.530, 83.109 229.562, 79.961 234.816 L 74.237 244.368 76.868 247.194 C 83.267 254.066, 93.888 264.011, 94.507 263.709 C 94.742 263.594, 95.812 264.251, 96.883 265.168 C 97.954 266.085, 99.094 266.573, 99.415 266.251 C 99.737 265.930, 100 266.163, 100 266.769 C 100 267.375, 101.575 268.440, 103.500 269.136 C 105.425 269.832, 107 270.836, 107 271.368 C 107 271.899, 107.302 272.032, 107.670 271.663 C 108.039 271.295, 109.276 271.586, 110.420 272.312 C 112.772 273.803, 125.455 278.202, 128.500 278.583 C 129.600 278.721, 130.500 278.913, 130.500 279.010 C 130.500 279.360, 144.600 280.403, 149 280.379 C 158.591 280.325, 167.128 279.602, 167.622 278.803 C 167.906 278.344, 168.509 278.197, 168.963 278.477 C 169.416 278.757, 171.747 278.280, 174.144 277.417 C 176.540 276.554, 179.175 275.704, 180 275.527 C 185.264 274.402, 203.775 264.132, 204.833 261.750 C 205.017 261.337, 205.563 261, 206.048 261 C 207.310 261, 213.567 255.410, 219.890 248.633 L 223.281 245 208.699 245 C 200.680 245, 193.866 244.592, 193.558 244.094 C 192.920 243.061, 189 243.836, 189 244.995 C 189 245.414, 187.650 246.317, 186 247 C 184.350 247.683, 183 248.638, 183 249.121 C 183 249.605, 182.662 249.927, 182.250 249.839 C 181.838 249.750, 180.150 250.272, 178.500 251 C 176.850 251.728, 175.162 252.250, 174.750 252.161 C 174.338 252.073, 174 252.477, 174 253.059 C 174 253.641, 173.598 253.869, 173.106 253.566 C 172.615 253.262, 170.539 253.713, 168.493 254.567 C 162.738 256.972, 143.383 258.563, 141.266 256.805 C 140.583 256.239, 139.342 256.038, 138.507 256.359 C 137.673 256.679, 134.313 256.108, 131.042 255.090 C 127.771 254.072, 124.848 253.485, 124.547 253.786 C 124.246 254.087, 124 253.733, 124 253 C 124 252.267, 123.740 251.926, 123.423 252.244 C 122.741 252.926, 110.794 247.182, 109.852 245.719 C 109.496 245.166, 108.248 244.963, 107.079 245.269 C 105.760 245.614, 105.035 245.383, 105.170 244.663 C 105.427 243.286, 98.611 236, 97.067 236 C 96.480 236, 96 235.520, 96 234.933 C 96 234.346, 94.537 232.384, 92.750 230.572 C 88.179 225.940, 87.289 224.632, 87.757 223.228 C 88.374 221.378, 87.032 221.752, 86.311 223.632 M 52.564 225.707 C 52.022 227.132, 52.136 227.247, 53.124 226.267 C 53.808 225.588, 54.115 224.781, 53.807 224.474 C 53.499 224.166, 52.940 224.721, 52.564 225.707 M 142.097 234.560 C 140.942 236.518, 140.451 237.840, 141.005 237.497 C 142.089 236.827, 145.335 231, 144.624 231 C 144.390 231, 143.252 232.602, 142.097 234.560 M 44 241.059 C 44 241.641, 44.450 241.840, 45 241.500 C 45.550 241.160, 46 240.684, 46 240.441 C 46 240.198, 45.550 240, 45 240 C 44.450 240, 44 240.477, 44 241.059" stroke="none" fill="#0c7bbb" fill-rule="evenodd"></path><path d="M 140.546 30.283 C 136.721 37.827, 133.234 44, 132.796 44 C 132.358 44, 132 44.694, 132 45.542 C 132 46.390, 131.532 47.628, 130.961 48.292 C 130.389 48.956, 127.497 53.325, 124.533 58 C 121.570 62.675, 118.768 66.950, 118.307 67.500 C 117.846 68.050, 115.915 70.975, 114.017 74 C 112.119 77.025, 110.173 79.777, 109.692 80.115 C 109.212 80.453, 108.297 81.626, 107.660 82.722 C 106.358 84.958, 102.855 90.068, 97.528 97.500 C 95.557 100.250, 93.179 103.625, 92.245 105 C 91.311 106.375, 90.310 107.725, 90.020 108 C 89.551 108.446, 84.478 115.832, 79.780 122.909 C 78.835 124.334, 77.309 126.850, 76.391 128.500 C 75.472 130.150, 74.411 131.725, 74.032 132 C 73.267 132.555, 71.949 135.025, 64.855 149.199 C 62.185 154.533, 60 159.483, 59.999 160.199 C 59.999 160.915, 59.099 163.867, 57.999 166.761 C 56.900 169.654, 56 173.349, 56 174.971 C 56 177.593, 56.472 178.048, 60.250 179.073 C 62.588 179.708, 66.493 180.851, 68.928 181.614 C 75.737 183.745, 76 183.613, 76 178.046 C 76 171.965, 82.509 151.450, 86.251 145.740 C 87.213 144.272, 88.010 142.492, 88.022 141.785 C 88.034 141.078, 88.924 139.375, 90 138 C 91.076 136.625, 91.966 134.713, 91.978 133.750 C 91.990 132.787, 92.401 132, 92.891 132 C 93.382 132, 94.533 130.313, 95.450 128.250 C 96.367 126.188, 98.206 122.700, 99.537 120.500 C 100.867 118.300, 102.955 114.588, 104.177 112.250 C 105.399 109.912, 106.759 108, 107.199 108 C 107.640 108, 108 107.282, 108 106.404 C 108 105.527, 108.787 103.612, 109.750 102.150 C 113.031 97.165, 114.040 95.501, 115.598 92.500 C 116.454 90.850, 118.408 87.250, 119.938 84.500 C 123.431 78.226, 131.640 61.876, 134.124 56.250 C 138.859 45.524, 139.857 43.137, 141.861 37.750 C 143.037 34.587, 144.936 29.564, 146.081 26.587 C 147.225 23.610, 148.013 20.137, 147.831 18.869 C 147.590 17.194, 145.602 20.309, 140.546 30.283 M 149.475 19.250 C 149.865 20.488, 150.778 23.584, 151.504 26.130 C 152.230 28.677, 153.539 32.142, 154.412 33.831 C 155.286 35.519, 156 37.418, 156 38.049 C 156 38.681, 156.631 40.616, 157.403 42.349 C 162.801 54.471, 164 57.355, 164 58.216 C 164 60.814, 168.224 64.894, 171.217 65.188 C 173.924 65.455, 174.502 66.009, 175.189 69 C 175.631 70.925, 176.648 74.750, 177.449 77.500 C 178.251 80.250, 179.123 83.741, 179.388 85.259 C 180.061 89.108, 181.087 92.156, 182.136 93.423 C 183.826 95.464, 188 102.090, 188 102.733 C 188 103.087, 189.012 104.864, 190.250 106.681 C 192.492 109.975, 192.529 109.986, 200.812 109.993 L 209.124 110 205.812 105.250 C 203.990 102.638, 201.938 100.140, 201.250 99.700 C 200.563 99.260, 200 98.449, 200 97.897 C 200 97.345, 197.629 93.655, 194.730 89.697 C 189.772 82.926, 187.571 79.799, 184 74.458 C 183.175 73.224, 181.037 70.119, 179.250 67.557 C 177.463 64.996, 176 62.720, 176 62.500 C 176 61.715, 169.567 52.494, 168.791 52.167 C 168.356 51.983, 168 51.008, 168 50 C 168 48.992, 167.651 48.017, 167.225 47.833 C 166.252 47.415, 157.363 31.566, 153.444 23.263 C 150.603 17.245, 148.022 14.635, 149.475 19.250 M 207.249 123.150 C 204.540 127.702, 203.324 130.693, 203.896 131.396 C 205.110 132.887, 211.681 145.847, 212.897 149.147 C 213.731 151.411, 214.644 151.894, 219.186 152.477 C 224.331 153.138, 230.608 154.529, 233.563 155.662 C 234.406 155.986, 235 155.614, 235 154.761 C 235 153.298, 232.695 147.788, 230.916 145 C 230.390 144.175, 229.243 141.925, 228.368 140 C 227.492 138.075, 226.439 136.275, 226.027 136 C 225.616 135.725, 224.528 134.150, 223.609 132.500 C 222.691 130.850, 221.165 128.315, 220.220 126.866 C 219.274 125.418, 217.405 122.380, 216.066 120.116 C 214.727 117.852, 213.152 116.002, 212.566 116.004 C 211.980 116.006, 209.587 119.222, 207.249 123.150 M 18 144.438 C 18 150.242, 24.955 171.769, 29.167 179 C 29.647 179.825, 30.680 181.886, 31.462 183.580 C 32.244 185.273, 33.585 187.241, 34.442 187.952 C 35.299 188.663, 36 189.727, 36 190.315 C 36 191.931, 52.887 208, 54.585 208 C 55.398 208, 56.284 208.577, 56.555 209.282 C 56.825 209.987, 58.187 210.514, 59.581 210.453 C 61.690 210.361, 62.961 208.842, 67.140 201.421 C 69.904 196.514, 72.989 191.332, 73.998 189.905 L 75.831 187.310 73.381 187.778 C 69.114 188.594, 53.279 182.423, 47.187 177.571 C 39.661 171.575, 25.915 155.511, 23.987 150.459 C 23.559 149.336, 22.486 147.819, 21.604 147.086 C 20.722 146.354, 20 145.135, 20 144.378 C 20 143.620, 19.550 143, 19 143 C 18.450 143, 18 143.647, 18 144.438 M 202.703 157.731 C 199.697 158.044, 199.012 158.478, 199.415 159.813 C 199.696 160.741, 201.482 167.277, 203.385 174.339 C 205.287 181.400, 207.054 187.388, 207.311 187.645 C 207.568 187.902, 210.641 187.329, 214.139 186.373 C 223.739 183.748, 237.692 183.965, 246.787 186.881 C 250.795 188.166, 254.701 189.844, 255.466 190.609 C 256.231 191.374, 257.336 192, 257.921 192 C 260.088 192, 272.659 203.524, 277.694 210.126 C 281.453 215.056, 283.691 216.457, 282.683 213.250 C 276.247 192.787, 266.614 178.634, 252.379 168.730 C 240.243 160.286, 220.391 155.891, 202.703 157.731 M 144.500 171.685 C 143.400 171.934, 140.592 173.007, 138.261 174.069 C 135.929 175.131, 133.402 176, 132.644 176 C 131.887 176, 129.069 176.846, 126.383 177.879 C 123.698 178.913, 118.965 180.494, 115.867 181.393 L 110.235 183.028 100.974 199.264 C 95.881 208.194, 91.118 216.411, 90.390 217.525 C 89.079 219.528, 89.174 219.541, 99.387 218.785 C 105.064 218.364, 112.362 217.417, 115.604 216.681 L 121.500 215.342 130.371 199.921 C 140.732 181.909, 141.980 179.756, 144.963 174.750 C 146.192 172.688, 147.041 171.052, 146.849 171.116 C 146.657 171.180, 145.600 171.436, 144.500 171.685 M 169.533 188.530 C 166.347 194.014, 163.088 199.552, 162.291 200.837 C 160.238 204.143, 161.173 204.446, 166.091 202.070 C 168.448 200.932, 170.951 200, 171.654 200 C 173.290 200, 180.015 196.811, 179.953 196.065 C 179.928 195.754, 178.876 191.689, 177.615 187.030 L 175.324 178.560 169.533 188.530 M 214.199 191.286 C 209.282 192.072, 208.023 192.619, 208.467 193.775 C 208.780 194.591, 209.503 197.112, 210.074 199.379 C 211.095 203.433, 211.184 203.500, 215.556 203.500 C 218 203.500, 220 203.162, 220 202.750 C 220 201.598, 233.639 201.860, 240.440 203.143 C 251.961 205.315, 263.802 209.785, 269.903 214.264 C 275.672 218.500, 272.222 211.456, 265.328 204.926 C 251.886 192.191, 235.642 187.858, 214.199 191.286 M 180.667 205.667 C 179.508 206.826, 179.938 207.751, 181.873 208.257 C 183.314 208.633, 183.633 208.314, 183.257 206.873 C 182.751 204.938, 181.826 204.508, 180.667 205.667 M 215.703 212.762 C 215.017 216.333, 215.403 216.606, 216.800 213.540 C 217.418 212.182, 217.543 210.836, 217.077 210.547 C 216.610 210.259, 215.992 211.256, 215.703 212.762 M 236.564 218.707 C 236.022 220.132, 236.136 220.247, 237.124 219.267 C 237.808 218.588, 238.115 217.781, 237.807 217.474 C 237.499 217.166, 236.940 217.721, 236.564 218.707 M 234.249 225.250 C 233.174 228.188, 233.201 228.314, 234.530 226.559 C 235.802 224.879, 236.553 222, 235.719 222 C 235.565 222, 234.903 223.463, 234.249 225.250 M 90.500 229 C 90.840 229.550, 91.316 230, 91.559 230 C 91.802 230, 92 229.550, 92 229 C 92 228.450, 91.523 228, 90.941 228 C 90.359 228, 90.160 228.450, 90.500 229 M 231 231 C 230.409 232.105, 230.341 233, 230.848 233 C 231.353 233, 232.002 232.100, 232.290 231 C 232.577 229.900, 232.646 229, 232.442 229 C 232.237 229, 231.589 229.900, 231 231 M 102.500 241 C 102.840 241.550, 103.316 242, 103.559 242 C 103.802 242, 104 241.550, 104 241 C 104 240.450, 103.523 240, 102.941 240 C 102.359 240, 102.160 240.450, 102.500 241 M 222.500 244 C 222.160 244.550, 222.359 245, 222.941 245 C 223.523 245, 224 244.550, 224 244 C 224 243.450, 223.802 243, 223.559 243 C 223.316 243, 222.840 243.450, 222.500 244 M 110 246.393 C 110 246.609, 110.698 247.054, 111.552 247.382 C 112.442 247.723, 112.843 247.555, 112.493 246.989 C 111.906 246.038, 110 245.583, 110 246.393 M 77.461 248.957 C 79.639 251.364, 80.138 251.524, 79.391 249.577 C 79.091 248.795, 78.118 247.875, 77.229 247.534 C 75.901 247.025, 75.942 247.279, 77.461 248.957 M 114 248.393 C 114 248.609, 114.698 249.054, 115.552 249.382 C 116.442 249.723, 116.843 249.555, 116.493 248.989 C 115.906 248.038, 114 247.583, 114 248.393 M 218.100 250.295 C 216.835 252.402, 216.857 252.423, 218.579 250.774 C 219.570 249.824, 220.166 248.832, 219.903 248.569 C 219.640 248.306, 218.829 249.083, 218.100 250.295 M 179 250 C 178.099 250.582, 177.975 250.975, 178.691 250.985 C 179.346 250.993, 180.160 250.550, 180.500 250 C 181.267 248.758, 180.921 248.758, 179 250 M 81 252.378 C 81 252.585, 81.787 253.373, 82.750 254.128 C 84.336 255.371, 84.371 255.336, 83.128 253.750 C 81.821 252.084, 81 251.555, 81 252.378 M 172.500 253 C 172.840 253.550, 173.316 254, 173.559 254 C 173.802 254, 174 253.550, 174 253 C 174 252.450, 173.523 252, 172.941 252 C 172.359 252, 172.160 252.450, 172.500 253 M 86.461 257.957 C 88.639 260.364, 89.138 260.524, 88.391 258.577 C 88.091 257.795, 87.118 256.875, 86.229 256.534 C 84.901 256.025, 84.942 256.279, 86.461 257.957 M 141.500 257 C 141.840 257.550, 143.190 258, 144.500 258 C 145.810 258, 147.160 257.550, 147.500 257 C 147.869 256.404, 146.657 256, 144.500 256 C 142.343 256, 141.131 256.404, 141.500 257 M 150 257 C 150 258.274, 154.029 258.274, 156 257 C 157.116 256.279, 156.539 256.027, 153.750 256.015 C 151.688 256.007, 150 256.450, 150 257 M 209 258.500 C 208.306 259.337, 208.197 260, 208.755 260 C 209.305 260, 210.315 259.325, 211 258.500 C 211.694 257.663, 211.803 257, 211.245 257 C 210.695 257, 209.685 257.675, 209 258.500 M 90 260.378 C 90 260.585, 90.787 261.373, 91.750 262.128 C 93.336 263.371, 93.371 263.336, 92.128 261.750 C 90.821 260.084, 90 259.555, 90 260.378 M 205 262.059 C 205 262.641, 205.450 262.840, 206 262.500 C 206.550 262.160, 207 261.684, 207 261.441 C 207 261.198, 206.550 261, 206 261 C 205.450 261, 205 261.477, 205 262.059 M 198.872 266.750 C 197.629 268.336, 197.664 268.371, 199.250 267.128 C 200.916 265.821, 201.445 265, 200.622 265 C 200.415 265, 199.627 265.788, 198.872 266.750 M 103 269.558 C 103 269.763, 103.900 270.411, 105 271 C 106.105 271.591, 107 271.659, 107 271.152 C 107 270.647, 106.100 269.998, 105 269.710 C 103.900 269.423, 103 269.354, 103 269.558 M 190.500 271 C 188.870 271.701, 188.812 271.872, 190.191 271.930 C 191.121 271.968, 192.160 271.550, 192.500 271 C 193.211 269.850, 193.176 269.850, 190.500 271 M 108 271.430 C 108 271.705, 108.900 272.411, 110 273 C 111.100 273.589, 112 273.845, 112 273.570 C 112 273.295, 111.100 272.589, 110 272 C 108.900 271.411, 108 271.155, 108 271.430 M 186 273 C 185.099 273.582, 184.975 273.975, 185.691 273.985 C 186.346 273.993, 187.160 273.550, 187.500 273 C 188.267 271.758, 187.921 271.758, 186 273 M 114 274.954 C 114.825 275.513, 116.362 275.976, 117.417 275.985 C 119.975 276.005, 119.177 275.433, 115.500 274.610 C 113.309 274.120, 112.905 274.213, 114 274.954 M 182 275 C 181.099 275.582, 180.975 275.975, 181.691 275.985 C 182.346 275.993, 183.160 275.550, 183.500 275 C 184.267 273.758, 183.921 273.758, 182 275 M 128.500 279 C 128.160 279.550, 128.610 280, 129.500 280 C 130.390 280, 130.840 279.550, 130.500 279 C 130.160 278.450, 129.710 278, 129.500 278 C 129.290 278, 128.840 278.450, 128.500 279 M 167.500 279 C 167.160 279.550, 167.359 280, 167.941 280 C 168.523 280, 169 279.550, 169 279 C 169 278.450, 168.802 278, 168.559 278 C 168.316 278, 167.840 278.450, 167.500 279 M 133.813 279.683 C 134.534 279.972, 135.397 279.936, 135.729 279.604 C 136.061 279.272, 135.471 279.036, 134.417 279.079 C 133.252 279.127, 133.015 279.364, 133.813 279.683 M 139.762 280.707 C 141.006 280.946, 142.806 280.937, 143.762 280.687 C 144.718 280.437, 143.700 280.241, 141.500 280.252 C 139.300 280.263, 138.518 280.468, 139.762 280.707 M 154.762 280.707 C 156.006 280.946, 157.806 280.937, 158.762 280.687 C 159.718 280.437, 158.700 280.241, 156.500 280.252 C 154.300 280.263, 153.518 280.468, 154.762 280.707" stroke="none" fill="#26abe3" fill-rule="evenodd"></path><path d="M 143.472 70.250 C 141.966 73.138, 139.853 76.625, 138.776 78 C 137.699 79.375, 136.168 81.850, 135.373 83.500 C 132.680 89.090, 130.695 92.498, 129.779 93.100 C 129.277 93.430, 128.765 94.397, 128.640 95.249 C 128.515 96.101, 127.912 97.406, 127.302 98.149 C 126.691 98.892, 124.735 102.200, 122.955 105.500 C 121.176 108.800, 119.038 112.287, 118.205 113.250 C 117.372 114.213, 117.097 115.007, 117.595 115.015 C 118.093 115.024, 118.020 115.361, 117.434 115.765 C 116.848 116.169, 114.852 119.200, 113 122.500 C 111.148 125.800, 109.377 128.725, 109.066 129 C 108.755 129.275, 108.351 130.173, 108.168 130.997 C 107.985 131.820, 107.385 133.037, 106.833 133.701 C 106.282 134.365, 105.060 136.392, 104.117 138.204 C 101.509 143.219, 99.649 146.315, 98.052 148.298 C 97.255 149.287, 96.509 150.740, 96.393 151.528 C 96.277 152.316, 95.467 153.676, 94.591 154.551 C 93.716 155.427, 93 156.541, 93 157.027 C 93 157.513, 91.987 159.455, 90.750 161.341 C 88.071 165.426, 84.660 171.299, 84.560 172 C 84.498 172.436, 79.729 180.712, 77.069 185 C 76.557 185.825, 72.845 192.275, 68.819 199.334 C 64.794 206.393, 61.032 212.982, 60.461 213.977 C 59.889 214.973, 58.822 216.510, 58.089 217.393 C 57.355 218.277, 57.148 219.007, 57.628 219.015 C 58.107 219.024, 58.016 219.361, 57.425 219.765 C 56.834 220.169, 55.274 222.525, 53.957 225 C 52.641 227.475, 50.897 230.309, 50.083 231.298 C 49.269 232.287, 48.497 233.817, 48.368 234.698 C 48.239 235.579, 47.623 236.615, 47 237 C 46.377 237.385, 45.768 238.375, 45.647 239.200 C 45.526 240.025, 44.645 241.892, 43.690 243.350 L 41.954 246 57.727 245.987 L 73.500 245.975 79.474 235.737 C 82.760 230.107, 86.541 223.475, 87.877 221 C 89.213 218.525, 94.210 209.750, 98.981 201.500 C 103.752 193.250, 108.295 185.375, 109.078 184 C 109.860 182.625, 110.782 181.275, 111.126 181 C 111.471 180.725, 113.692 176.787, 116.062 172.250 C 118.432 167.713, 120.738 164, 121.186 164 C 121.633 164, 122 163.541, 122 162.980 C 122 162.419, 123.217 160.057, 124.704 157.730 C 126.191 155.404, 127.507 152.898, 127.628 152.162 C 127.749 151.427, 128.558 150.041, 129.424 149.084 C 130.291 148.126, 131 146.963, 131 146.500 C 131 146.037, 131.640 144.947, 132.421 144.079 C 133.203 143.210, 133.990 141.825, 134.171 141 C 134.352 140.175, 134.775 139.275, 135.111 139 C 135.447 138.725, 137.423 135.350, 139.502 131.500 C 141.582 127.650, 143.857 123.825, 144.558 123 C 146.197 121.073, 150.596 113.304, 152.062 109.750 C 152.685 108.237, 153.628 107, 154.157 107 C 154.685 107, 154.840 106.550, 154.500 106 C 154.160 105.450, 154.614 105, 155.508 105 C 156.680 105, 156.957 105.560, 156.500 107 C 156.122 108.192, 156.320 109, 156.992 109 C 157.611 109, 157.869 109.402, 157.566 109.894 C 157.262 110.385, 157.717 112.472, 158.577 114.531 C 159.438 116.590, 160.178 119.563, 160.223 121.137 C 160.268 122.712, 160.712 124, 161.211 124 C 161.710 124, 161.869 124.402, 161.566 124.894 C 161.262 125.385, 161.690 127.407, 162.517 129.387 C 163.345 131.367, 164.098 134.227, 164.192 135.743 C 164.286 137.260, 164.678 138.950, 165.062 139.500 C 165.447 140.050, 163.587 143.762, 160.928 147.750 C 158.270 151.738, 156.314 155, 156.583 155 C 157.081 155, 156.409 156.217, 152.992 161.500 C 151.924 163.150, 149.629 167.200, 147.892 170.500 C 142.800 180.170, 119.904 219.339, 118.226 221.250 C 117.381 222.212, 117.097 223.007, 117.595 223.015 C 118.093 223.024, 118.020 223.361, 117.434 223.765 C 116.848 224.169, 114.852 227.200, 113 230.500 C 111.148 233.800, 109.152 236.831, 108.566 237.235 C 107.980 237.639, 107.874 237.976, 108.332 237.985 C 108.789 237.993, 108.226 239.516, 107.082 241.368 C 105.937 243.220, 105 244.935, 105 245.177 C 105 245.420, 112.043 245.591, 120.651 245.559 L 136.302 245.500 139.923 239 C 144.641 230.532, 146.996 226.540, 149.750 222.341 C 150.988 220.455, 152 218.513, 152 218.027 C 152 217.541, 152.716 216.427, 153.591 215.551 C 154.467 214.676, 155.266 213.392, 155.368 212.698 C 155.470 212.004, 156.665 209.875, 158.023 207.968 C 159.381 206.061, 160.412 204.275, 160.314 204 C 160.064 203.299, 173.944 179.153, 174.956 178.527 C 175.743 178.041, 179.971 191.971, 180.280 196.067 C 180.360 197.130, 180.806 198, 181.272 198 C 181.737 198, 181.873 198.397, 181.573 198.883 C 181.272 199.368, 181.922 202.367, 183.016 205.547 C 184.110 208.727, 184.818 211.515, 184.589 211.744 C 184.361 211.973, 185.220 215.238, 186.500 219 C 187.780 222.762, 188.642 226.025, 188.415 226.251 C 188.189 226.477, 189.058 229.776, 190.346 233.581 C 191.635 237.387, 192.519 240.995, 192.311 241.600 C 191.367 244.350, 194.904 245.055, 208.250 244.779 L 221.725 244.500 216.754 226.500 C 214.019 216.600, 211.675 207.825, 211.545 207 C 211.415 206.175, 210.520 202.870, 209.556 199.656 C 208.592 196.441, 207.687 192.752, 207.545 191.459 C 207.403 190.165, 206.787 187.845, 206.177 186.303 C 205.049 183.456, 199.158 161.601, 198.418 157.521 C 198.195 156.293, 197.370 153.465, 196.583 151.235 C 195.796 149.005, 195.443 146.891, 195.797 146.536 C 196.152 146.181, 195.930 145.575, 195.304 145.188 C 194.525 144.706, 195.024 143.227, 196.889 140.492 C 198.386 138.297, 199.586 136.177, 199.555 135.782 C 199.525 135.388, 200.379 134.038, 201.454 132.782 C 202.529 131.527, 203.299 130.275, 203.166 130 C 202.829 129.306, 211.970 113.137, 213.090 112.444 C 215.985 110.655, 213.090 109.899, 203.750 110.005 C 185.369 110.212, 186.074 110.315, 184.876 107.250 C 184.285 105.737, 183.790 103.487, 183.776 102.250 C 183.761 101.013, 183.330 100, 182.816 100 C 182.302 100, 182.114 99.625, 182.398 99.166 C 182.681 98.707, 181.879 95.219, 180.615 91.416 C 179.350 87.612, 177.274 80.389, 176 75.364 L 173.684 66.229 169.202 65.614 C 166.738 65.276, 160.556 65, 155.465 65 L 146.210 65 143.472 70.250" stroke="none" fill="#041c3c" fill-rule="evenodd"></path></g></svg>