<svg xmlns="http://www.w3.org/2000/svg" version="1.0" width="200.000000pt" height="200.000000pt" viewBox="0 0 200.000000 200.000000" preserveAspectRatio="xMidYMid meet">

<g transform="translate(0.000000,200.000000) scale(0.100000,-0.100000)" fill="#000000" stroke="none">
<path d="M910 1950 c-377 -36 -693 -288 -819 -654 -33 -98 -34 -106 -38 -276 -3 -156 0 -184 20 -260 l22 -85 124 -3 c116 -2 151 -10 151 -33 0 -5 -56 -9 -125 -9 -69 0 -125 -3 -125 -7 0 -5 11 -28 24 -53 l23 -45 147 -3 c111 -2 154 -6 169 -17 19 -14 6 -15 -131 -15 -103 0 -152 -4 -152 -11 0 -6 14 -31 32 -55 l31 -44 197 0 c167 0 204 -3 236 -17 39 -18 39 -18 -175 -23 l-213 -5 50 -47 51 -48 589 0 590 0 53 47 53 48 -215 5 c-196 5 -212 6 -189 20 19 12 73 16 235 20 l209 5 33 43 c18 24 33 48 33 53 0 5 -66 9 -151 9 -134 0 -150 2 -139 15 10 12 42 15 166 15 l154 0 25 50 c14 27 25 52 25 55 0 3 -57 5 -126 5 -111 0 -125 2 -120 16 3 9 6 18 6 20 0 2 58 4 129 4 l130 0 16 57 c29 99 38 184 32 318 -6 152 -27 236 -92 370 -117 243 -332 425 -589 499 -75 22 -127 30 -246 40 -19 1 -69 -1 -110 -4z m265 -222 c39 -12 38 -12 -60 -19 -149 -9 -239 -47 -346 -146 -75 -70 -141 -196 -159 -304 -41 -243 110 -497 351 -591 76 -29 223 -36 309 -13 197 51 356 218 391 410 21 112 29 105 25 -20 -7 -197 -64 -332 -198 -466 -128 -127 -293 -194 -478 -193 -433 2 -748 388 -666 816 52 269 276 488 551 538 63 11 227 4 280 -12z"/>
<path d="M460 205 c0 -2 33 -22 73 -45 l72 -40 394 0 394 0 63 35 c35 20 66 40 69 45 4 7 -184 10 -529 10 -295 0 -536 -2 -536 -5z"/>
<path d="M745 75 c53 -24 194 -38 310 -32 98 6 207 26 223 41 3 3 -123 6 -279 5 -246 -1 -280 -2 -254 -14z"/>
</g>
</svg>
