<svg width="48" height="48" viewBox="0 0 65 64" fill="none" xmlns="http://www.w3.org/2000/svg"><path fill-rule="evenodd" clip-rule="evenodd" d="M30.5053 3.44377C33.2709 2.21461 36.4939 3.63617 37.4509 6.50732L40.0582 14.3291C41.7503 15.7986 42.7265 17.9324 42.7265 20.1809V39.5608C42.7265 41.3026 41.3145 42.7146 39.5726 42.7146C39.5211 42.7146 39.4698 42.7134 39.4188 42.711V51.0583C39.4188 52.3259 40.3277 53.411 41.5756 53.6332L42.7271 53.8383C44.0619 54.076 45.0342 55.2367 45.0342 56.5925C45.0342 56.9234 44.9756 57.2451 44.8665 57.5448C44.8757 57.6011 44.8804 57.6577 44.8804 57.7146C44.8804 59.7963 38.6468 61.4838 30.9573 61.4838C23.2678 61.4838 17.0342 59.7963 17.0342 57.7146C17.0342 55.9549 21.4883 54.4769 27.5108 54.0617L27.6443 36.114C26.0744 34.5844 25.126 32.4239 25.2053 30.0528L25.6243 17.5319C25.6481 16.8197 25.9182 16.1378 26.3886 15.6026L27.7498 14.0537C27.8175 13.9766 27.8516 13.8756 27.8444 13.7733L27.4734 8.48736C27.3224 6.33576 28.5343 4.31977 30.5053 3.44377ZM32.4188 42.0269V55.7678C32.1885 55.81 31.931 55.8295 31.6506 55.8265C31.1075 55.8206 30.5425 55.7313 30.0442 55.6183C29.6648 55.5323 29.3489 55.1565 29.3529 54.6225L29.4525 41.2179C30.0904 41.5174 31.5411 41.9816 32.4188 42.0269ZM36.4188 42.4838C36.4188 43.2445 36.8989 43.8931 37.5726 44.1431V51.0583C37.5726 53.2206 39.1232 55.0717 41.252 55.4508L42.4034 55.6558C42.8574 55.7367 43.188 56.1314 43.188 56.5925C43.188 57.0457 42.88 57.3991 42.4809 57.4656C40.5525 57.7867 37.2079 58.2013 34.6253 57.8103C34.4546 57.7844 34.2649 57.614 34.2649 57.3129V37.5411C34.2649 36.9997 33.826 36.5608 33.2847 36.5608C29.7579 36.5608 26.9325 33.6393 27.0505 30.1145L27.4694 17.5936C27.4789 17.3085 27.5871 17.0355 27.7754 16.8213L29.1365 15.2723C29.5298 14.8248 29.7277 14.2384 29.686 13.6441L29.3151 8.35812C29.2184 6.98135 29.9939 5.69135 31.2551 5.13081C33.0248 4.34429 35.0871 5.25392 35.6995 7.09112L38.3752 15.1183C38.4396 15.3113 38.5573 15.4821 38.7147 15.6109C40.0854 16.7324 40.8803 18.4099 40.8803 20.1809V39.5608C40.8803 40.283 40.2949 40.8685 39.5726 40.8685C38.8504 40.8685 38.2649 40.283 38.2649 39.5608V21.6377H36.4188V39.5608L36.4188 39.5737V42.4838Z" fill="black"></path><path fill-rule="evenodd" clip-rule="evenodd" d="M32.4061 42.0277V55.7686C32.1758 55.8108 31.9182 55.8303 31.6379 55.8273C31.0948 55.8214 30.5298 55.7321 30.0314 55.6191C29.6521 55.5331 29.3362 55.1573 29.3402 54.6233L29.4398 41.2187C30.0777 41.5182 31.5284 41.9824 32.4061 42.0277ZM36.4061 42.4846C36.4061 43.2453 36.8862 43.8939 37.5599 44.1439V51.0592C37.5599 53.2214 39.1104 55.0725 41.2392 55.4516L42.3907 55.6566C42.8447 55.7375 43.1753 56.1322 43.1753 56.5933C43.1753 57.0466 42.8672 57.3999 42.4681 57.4664C40.5398 57.7875 37.1952 58.2021 34.6126 57.8111C34.4418 57.7852 34.2522 57.6148 34.2522 57.3137V37.5419C34.2522 37.0005 33.8133 36.5616 33.2719 36.5616C29.7452 36.5616 26.9198 33.6401 27.0377 30.1153L27.4567 17.5944C27.4662 17.3093 27.5743 17.0363 27.7626 16.8221L29.1238 15.2732C29.5171 14.8256 29.715 14.2392 29.6733 13.6449L29.3023 8.35893C29.2057 6.98216 29.9812 5.69216 31.2424 5.13162C33.0121 4.3451 35.0744 5.25473 35.6868 7.09193L38.3625 15.1191C38.4268 15.3121 38.5445 15.4829 38.702 15.6117C40.0727 16.7332 40.8676 18.4107 40.8676 20.1817V39.5616C40.8676 40.2838 40.2821 40.8693 39.5599 40.8693C38.8377 40.8693 38.2522 40.2838 38.2522 39.5616V21.6385H36.4061V39.5616L36.4061 39.5745V42.4846Z" fill="#F2FE67"></path></svg>